<mxfile host="app.diagrams.net" modified="2023-01-11T11:25:40.237Z" agent="5.0 (Windows NT 10.0; Win64; x64) AppleWebKit/537.36 (KHTML, like Gecko) Chrome/108.0.0.0 Safari/537.36" etag="9Ze1nyjZ6DQR86vIZIMT" version="20.8.3" type="github">
  <diagram id="C5RBs43oDa-KdzZeNtuy" name="Page-1">
    <mxGraphModel dx="1781" dy="588" grid="1" gridSize="10" guides="1" tooltips="1" connect="1" arrows="1" fold="1" page="1" pageScale="1" pageWidth="827" pageHeight="1169" math="0" shadow="0">
      <root>
        <mxCell id="WIyWlLk6GJQsqaUBKTNV-0" />
        <mxCell id="WIyWlLk6GJQsqaUBKTNV-1" parent="WIyWlLk6GJQsqaUBKTNV-0" />
        <mxCell id="ta3j13yXIbVqD9M7twF5-7" value="" style="whiteSpace=wrap;html=1;fillColor=none;dashed=1;strokeWidth=2;" parent="WIyWlLk6GJQsqaUBKTNV-1" vertex="1">
          <mxGeometry x="402" y="203" width="543" height="1077" as="geometry" />
        </mxCell>
        <mxCell id="ta3j13yXIbVqD9M7twF5-4" value="" style="whiteSpace=wrap;html=1;fillColor=none;dashed=1;strokeWidth=2;labelBackgroundColor=none;" parent="WIyWlLk6GJQsqaUBKTNV-1" vertex="1">
          <mxGeometry x="-116" y="203" width="507" height="1077" as="geometry" />
        </mxCell>
        <mxCell id="1xUykO0D0YHAC69Du_Xp-15" value="" style="edgeStyle=orthogonalEdgeStyle;rounded=0;orthogonalLoop=1;jettySize=auto;html=1;fontSize=12;labelBackgroundColor=none;fontColor=default;" parent="WIyWlLk6GJQsqaUBKTNV-1" source="WIyWlLk6GJQsqaUBKTNV-3" target="WIyWlLk6GJQsqaUBKTNV-6" edge="1">
          <mxGeometry relative="1" as="geometry" />
        </mxCell>
        <mxCell id="WIyWlLk6GJQsqaUBKTNV-3" value="&lt;font style=&quot;font-size: 16px;&quot;&gt;发射任务&lt;/font&gt;" style="rounded=1;whiteSpace=wrap;html=1;fontSize=12;glass=0;strokeWidth=1;shadow=0;aspect=fixed;labelBackgroundColor=none;" parent="WIyWlLk6GJQsqaUBKTNV-1" vertex="1">
          <mxGeometry x="320" y="80" width="150" height="50" as="geometry" />
        </mxCell>
        <mxCell id="1xUykO0D0YHAC69Du_Xp-14" value="" style="edgeStyle=orthogonalEdgeStyle;rounded=0;orthogonalLoop=1;jettySize=auto;html=1;fontSize=12;labelBackgroundColor=none;fontColor=default;" parent="WIyWlLk6GJQsqaUBKTNV-1" source="WIyWlLk6GJQsqaUBKTNV-6" target="1xUykO0D0YHAC69Du_Xp-2" edge="1">
          <mxGeometry relative="1" as="geometry" />
        </mxCell>
        <mxCell id="1xUykO0D0YHAC69Du_Xp-16" style="edgeStyle=orthogonalEdgeStyle;rounded=0;orthogonalLoop=1;jettySize=auto;html=1;entryX=1;entryY=0.5;entryDx=0;entryDy=0;fontSize=12;labelBackgroundColor=none;fontColor=default;" parent="WIyWlLk6GJQsqaUBKTNV-1" source="WIyWlLk6GJQsqaUBKTNV-6" target="1xUykO0D0YHAC69Du_Xp-4" edge="1">
          <mxGeometry relative="1" as="geometry" />
        </mxCell>
        <mxCell id="WIyWlLk6GJQsqaUBKTNV-6" value="&lt;font style=&quot;font-size: 16px;&quot;&gt;分拣任务&lt;br&gt;&lt;/font&gt;（舵机控制）" style="rhombus;whiteSpace=wrap;html=1;shadow=0;fontFamily=Helvetica;fontSize=12;align=center;strokeWidth=1;spacing=6;spacingTop=-4;aspect=fixed;labelBackgroundColor=none;" parent="WIyWlLk6GJQsqaUBKTNV-1" vertex="1">
          <mxGeometry x="320" y="198" width="150" height="120" as="geometry" />
        </mxCell>
        <mxCell id="ta3j13yXIbVqD9M7twF5-2" style="edgeStyle=orthogonalEdgeStyle;rounded=0;orthogonalLoop=1;jettySize=auto;html=1;entryX=0.5;entryY=0;entryDx=0;entryDy=0;" parent="WIyWlLk6GJQsqaUBKTNV-1" source="1xUykO0D0YHAC69Du_Xp-2" target="1xUykO0D0YHAC69Du_Xp-8" edge="1">
          <mxGeometry relative="1" as="geometry" />
        </mxCell>
        <mxCell id="1xUykO0D0YHAC69Du_Xp-2" value="&lt;font style=&quot;font-size: 16px;&quot;&gt;轨道运行任务&lt;br&gt;&lt;/font&gt;（电磁铁、电机控制）" style="rounded=0;whiteSpace=wrap;html=1;aspect=fixed;labelBackgroundColor=none;" parent="WIyWlLk6GJQsqaUBKTNV-1" vertex="1">
          <mxGeometry x="580" y="233" width="150" height="50" as="geometry" />
        </mxCell>
        <mxCell id="ta3j13yXIbVqD9M7twF5-0" value="" style="edgeStyle=orthogonalEdgeStyle;rounded=0;orthogonalLoop=1;jettySize=auto;html=1;labelBackgroundColor=none;fontColor=default;" parent="WIyWlLk6GJQsqaUBKTNV-1" source="1xUykO0D0YHAC69Du_Xp-4" target="1xUykO0D0YHAC69Du_Xp-5" edge="1">
          <mxGeometry relative="1" as="geometry" />
        </mxCell>
        <mxCell id="1xUykO0D0YHAC69Du_Xp-4" value="&lt;font style=&quot;font-size: 16px;&quot;&gt;发送信号任务&lt;br&gt;&lt;/font&gt;（触碰开关、红外线发射）" style="rounded=0;whiteSpace=wrap;html=1;aspect=fixed;labelBackgroundColor=none;" parent="WIyWlLk6GJQsqaUBKTNV-1" vertex="1">
          <mxGeometry x="40" y="233" width="150" height="50" as="geometry" />
        </mxCell>
        <mxCell id="1xUykO0D0YHAC69Du_Xp-21" style="edgeStyle=orthogonalEdgeStyle;rounded=0;orthogonalLoop=1;jettySize=auto;html=1;entryX=0;entryY=0.5;entryDx=0;entryDy=0;fontSize=12;labelBackgroundColor=none;fontColor=default;" parent="WIyWlLk6GJQsqaUBKTNV-1" source="1xUykO0D0YHAC69Du_Xp-5" target="1xUykO0D0YHAC69Du_Xp-7" edge="1">
          <mxGeometry relative="1" as="geometry" />
        </mxCell>
        <mxCell id="1xUykO0D0YHAC69Du_Xp-26" value="" style="edgeStyle=orthogonalEdgeStyle;rounded=0;orthogonalLoop=1;jettySize=auto;html=1;fontSize=12;labelBackgroundColor=none;fontColor=default;" parent="WIyWlLk6GJQsqaUBKTNV-1" source="1xUykO0D0YHAC69Du_Xp-5" target="1xUykO0D0YHAC69Du_Xp-8" edge="1">
          <mxGeometry relative="1" as="geometry">
            <Array as="points">
              <mxPoint x="115" y="570" />
            </Array>
          </mxGeometry>
        </mxCell>
        <mxCell id="1xUykO0D0YHAC69Du_Xp-5" value="&lt;span style=&quot;font-size: 16px;&quot;&gt;是否收到信号&lt;br&gt;&lt;/span&gt;（红外线接收）" style="rhombus;whiteSpace=wrap;html=1;shadow=0;fontFamily=Helvetica;fontSize=12;align=center;strokeWidth=1;spacing=6;spacingTop=-4;aspect=fixed;labelBackgroundColor=none;" parent="WIyWlLk6GJQsqaUBKTNV-1" vertex="1">
          <mxGeometry x="40" y="390" width="150" height="120" as="geometry" />
        </mxCell>
        <mxCell id="1xUykO0D0YHAC69Du_Xp-7" value="&lt;font style=&quot;font-size: 16px;&quot;&gt;飞船1停止运动&lt;/font&gt;" style="rounded=1;whiteSpace=wrap;html=1;fontSize=12;glass=0;strokeWidth=1;shadow=0;aspect=fixed;labelBackgroundColor=none;" parent="WIyWlLk6GJQsqaUBKTNV-1" vertex="1">
          <mxGeometry x="780" y="425" width="150" height="50" as="geometry" />
        </mxCell>
        <mxCell id="ta3j13yXIbVqD9M7twF5-3" value="" style="edgeStyle=orthogonalEdgeStyle;rounded=0;orthogonalLoop=1;jettySize=auto;html=1;" parent="WIyWlLk6GJQsqaUBKTNV-1" source="1xUykO0D0YHAC69Du_Xp-8" target="1xUykO0D0YHAC69Du_Xp-9" edge="1">
          <mxGeometry relative="1" as="geometry" />
        </mxCell>
        <mxCell id="1xUykO0D0YHAC69Du_Xp-8" value="&lt;font style=&quot;font-size: 16px;&quot;&gt;测距任务&lt;br&gt;&lt;/font&gt;（距离传感器）" style="rounded=0;whiteSpace=wrap;html=1;aspect=fixed;labelBackgroundColor=none;" parent="WIyWlLk6GJQsqaUBKTNV-1" vertex="1">
          <mxGeometry x="580" y="538" width="150" height="50" as="geometry" />
        </mxCell>
        <mxCell id="1xUykO0D0YHAC69Du_Xp-29" style="edgeStyle=orthogonalEdgeStyle;rounded=0;orthogonalLoop=1;jettySize=auto;html=1;exitX=0;exitY=0.5;exitDx=0;exitDy=0;entryX=1;entryY=0.5;entryDx=0;entryDy=0;fontSize=12;labelBackgroundColor=none;fontColor=default;" parent="WIyWlLk6GJQsqaUBKTNV-1" source="1xUykO0D0YHAC69Du_Xp-9" target="1xUykO0D0YHAC69Du_Xp-10" edge="1">
          <mxGeometry relative="1" as="geometry" />
        </mxCell>
        <mxCell id="1xUykO0D0YHAC69Du_Xp-33" style="edgeStyle=orthogonalEdgeStyle;rounded=0;orthogonalLoop=1;jettySize=auto;html=1;entryX=1;entryY=0.5;entryDx=0;entryDy=0;fontSize=13;labelBackgroundColor=none;fontColor=default;" parent="WIyWlLk6GJQsqaUBKTNV-1" source="1xUykO0D0YHAC69Du_Xp-9" target="1xUykO0D0YHAC69Du_Xp-11" edge="1">
          <mxGeometry relative="1" as="geometry">
            <Array as="points">
              <mxPoint x="655" y="918" />
            </Array>
          </mxGeometry>
        </mxCell>
        <mxCell id="1xUykO0D0YHAC69Du_Xp-9" value="&lt;span style=&quot;font-size: 16px;&quot;&gt;是否检测&lt;br&gt;到飞船1&lt;/span&gt;" style="rhombus;whiteSpace=wrap;html=1;shadow=0;fontFamily=Helvetica;fontSize=12;align=center;strokeWidth=1;spacing=6;spacingTop=-4;aspect=fixed;labelBackgroundColor=none;" parent="WIyWlLk6GJQsqaUBKTNV-1" vertex="1">
          <mxGeometry x="580" y="698" width="150" height="120" as="geometry" />
        </mxCell>
        <mxCell id="1xUykO0D0YHAC69Du_Xp-10" value="&lt;font style=&quot;font-size: 16px;&quot;&gt;飞船2停止运动&lt;/font&gt;" style="rounded=1;whiteSpace=wrap;html=1;fontSize=12;glass=0;strokeWidth=1;shadow=0;aspect=fixed;labelBackgroundColor=none;" parent="WIyWlLk6GJQsqaUBKTNV-1" vertex="1">
          <mxGeometry x="100" y="733" width="150" height="50" as="geometry" />
        </mxCell>
        <mxCell id="1xUykO0D0YHAC69Du_Xp-35" value="" style="edgeStyle=orthogonalEdgeStyle;rounded=0;orthogonalLoop=1;jettySize=auto;html=1;fontSize=13;labelBackgroundColor=none;fontColor=default;" parent="WIyWlLk6GJQsqaUBKTNV-1" source="1xUykO0D0YHAC69Du_Xp-11" target="1xUykO0D0YHAC69Du_Xp-12" edge="1">
          <mxGeometry relative="1" as="geometry">
            <Array as="points">
              <mxPoint x="170" y="1048" />
            </Array>
          </mxGeometry>
        </mxCell>
        <mxCell id="1xUykO0D0YHAC69Du_Xp-11" value="&lt;span style=&quot;font-size: 16px;&quot;&gt;飞船2到达指定对接点&lt;br&gt;&lt;/span&gt;（机械结构件）" style="rounded=0;whiteSpace=wrap;html=1;aspect=fixed;labelBackgroundColor=none;" parent="WIyWlLk6GJQsqaUBKTNV-1" vertex="1">
          <mxGeometry x="85" y="888" width="180" height="60" as="geometry" />
        </mxCell>
        <mxCell id="1xUykO0D0YHAC69Du_Xp-36" value="" style="edgeStyle=orthogonalEdgeStyle;rounded=0;orthogonalLoop=1;jettySize=auto;html=1;fontSize=13;labelBackgroundColor=none;fontColor=default;exitX=0.5;exitY=1;exitDx=0;exitDy=0;" parent="WIyWlLk6GJQsqaUBKTNV-1" source="1xUykO0D0YHAC69Du_Xp-12" target="1xUykO0D0YHAC69Du_Xp-13" edge="1">
          <mxGeometry relative="1" as="geometry">
            <mxPoint x="395" y="1048" as="sourcePoint" />
            <Array as="points">
              <mxPoint x="655" y="1158" />
              <mxPoint x="395" y="1158" />
            </Array>
          </mxGeometry>
        </mxCell>
        <mxCell id="1xUykO0D0YHAC69Du_Xp-12" value="&lt;span style=&quot;font-size: 16px;&quot;&gt;飞船1到达指定对接点&lt;/span&gt;" style="rounded=0;whiteSpace=wrap;html=1;aspect=fixed;labelBackgroundColor=none;" parent="WIyWlLk6GJQsqaUBKTNV-1" vertex="1">
          <mxGeometry x="565" y="1018" width="180" height="60" as="geometry" />
        </mxCell>
        <mxCell id="1xUykO0D0YHAC69Du_Xp-13" value="&lt;font style=&quot;&quot;&gt;&lt;span style=&quot;font-size: 16px;&quot;&gt;对接成功&lt;/span&gt;&lt;br&gt;&lt;font style=&quot;font-size: 12px;&quot;&gt;（亮灯）&lt;/font&gt;&lt;br&gt;&lt;/font&gt;" style="rounded=1;whiteSpace=wrap;html=1;fontSize=12;glass=0;strokeWidth=1;shadow=0;aspect=fixed;labelBackgroundColor=none;" parent="WIyWlLk6GJQsqaUBKTNV-1" vertex="1">
          <mxGeometry x="320" y="1218" width="150" height="50" as="geometry" />
        </mxCell>
        <mxCell id="1xUykO0D0YHAC69Du_Xp-18" value="金属材质" style="text;html=1;strokeColor=none;fillColor=none;align=center;verticalAlign=middle;whiteSpace=wrap;rounded=0;fontSize=13;labelBackgroundColor=none;" parent="WIyWlLk6GJQsqaUBKTNV-1" vertex="1">
          <mxGeometry x="490" y="224" width="60" height="30" as="geometry" />
        </mxCell>
        <mxCell id="1xUykO0D0YHAC69Du_Xp-19" value="非金属材质" style="text;html=1;strokeColor=none;fillColor=none;align=center;verticalAlign=middle;whiteSpace=wrap;rounded=0;fontSize=13;labelBackgroundColor=none;" parent="WIyWlLk6GJQsqaUBKTNV-1" vertex="1">
          <mxGeometry x="220" y="224" width="70" height="30" as="geometry" />
        </mxCell>
        <mxCell id="1xUykO0D0YHAC69Du_Xp-25" value="未收到信号" style="text;html=1;strokeColor=none;fillColor=none;align=center;verticalAlign=middle;whiteSpace=wrap;rounded=0;fontSize=13;labelBackgroundColor=none;" parent="WIyWlLk6GJQsqaUBKTNV-1" vertex="1">
          <mxGeometry x="265" y="420" width="80" height="30" as="geometry" />
        </mxCell>
        <mxCell id="1xUykO0D0YHAC69Du_Xp-27" value="收到信号" style="text;html=1;strokeColor=none;fillColor=none;align=center;verticalAlign=middle;whiteSpace=wrap;rounded=0;fontSize=13;labelBackgroundColor=none;" parent="WIyWlLk6GJQsqaUBKTNV-1" vertex="1">
          <mxGeometry x="265" y="538" width="80" height="30" as="geometry" />
        </mxCell>
        <mxCell id="1xUykO0D0YHAC69Du_Xp-30" value="未检测到飞船1" style="text;html=1;strokeColor=none;fillColor=none;align=center;verticalAlign=middle;whiteSpace=wrap;rounded=0;fontSize=13;labelBackgroundColor=none;" parent="WIyWlLk6GJQsqaUBKTNV-1" vertex="1">
          <mxGeometry x="450" y="726.5" width="90" height="30" as="geometry" />
        </mxCell>
        <mxCell id="1xUykO0D0YHAC69Du_Xp-34" value="检测到飞船1" style="text;html=1;strokeColor=none;fillColor=none;align=center;verticalAlign=middle;whiteSpace=wrap;rounded=0;fontSize=13;labelBackgroundColor=none;" parent="WIyWlLk6GJQsqaUBKTNV-1" vertex="1">
          <mxGeometry x="450" y="888" width="92" height="30" as="geometry" />
        </mxCell>
        <mxCell id="ta3j13yXIbVqD9M7twF5-5" value="&lt;font color=&quot;#ff0000&quot; style=&quot;font-size: 16px;&quot;&gt;&lt;span style=&quot;font-size: 16px;&quot;&gt;飞船2任务路线&lt;/span&gt;&lt;/font&gt;" style="text;html=1;strokeColor=none;fillColor=none;align=center;verticalAlign=middle;whiteSpace=wrap;rounded=0;dashed=1;fontSize=16;fontStyle=1" parent="WIyWlLk6GJQsqaUBKTNV-1" vertex="1">
          <mxGeometry x="-100" y="224" width="70" height="30" as="geometry" />
        </mxCell>
        <mxCell id="ta3j13yXIbVqD9M7twF5-6" value="&lt;font color=&quot;#ff0000&quot; style=&quot;font-size: 16px;&quot;&gt;&lt;b&gt;飞船1任务路线&lt;/b&gt;&lt;/font&gt;" style="text;html=1;strokeColor=none;fillColor=none;align=center;verticalAlign=middle;whiteSpace=wrap;rounded=0;dashed=1;" parent="WIyWlLk6GJQsqaUBKTNV-1" vertex="1">
          <mxGeometry x="850" y="224" width="70" height="30" as="geometry" />
        </mxCell>
      </root>
    </mxGraphModel>
  </diagram>
</mxfile>
